<?xml version="1.0" encoding="utf-8"?>
<!-- Generator: Adobe Illustrator 23.0.1, SVG Export Plug-In . SVG Version: 6.00 Build 0)  -->
<svg version="1.1" id="Layer_1" xmlns="http://www.w3.org/2000/svg" xmlns:xlink="http://www.w3.org/1999/xlink" x="0px" y="0px"
	 width="14px" height="16px" viewBox="0 0 14 16" style="enable-background:new 0 0 14 16;" xml:space="preserve">
<style type="text/css">
	.st0{fill:#E8B2A5;}
</style>
<path class="st0" d="M5.0058594,14.890625L1.2861328,9.6689453c-0.2246094-0.3154297-0.2568359-0.699707-0.0874023-1.0292969
	C1.3730469,8.3022461,1.722168,8.0839844,2.0888672,8.0839844c0.3041992,0,0.5771484,0.1474609,0.7675781,0.4145508
	l0.8481445,1.1899414l0.1396484,0.0234375l0.0419922-6.5249023C3.8813477,2.9345703,3.9780273,2.6884766,4.1586914,2.5014648
	c0.1801758-0.1865234,0.4223633-0.2919922,0.6821289-0.2963867c0,0,0,0,0.0004883,0
	c0.5439453,0,0.9794922,0.4282227,0.9882813,0.9545898L5.8291016,8c0,0.0551758,0.0449219,0.1000977,0.1000977,0.1000977h0.2138672
	c0.0551758,0,0.1000977-0.0449219,0.1000977-0.1000977V2.0927734C6.2382813,1.8408203,6.3349609,1.5947266,6.5151367,1.4077148
	C6.6953125,1.2211914,6.9375,1.1157227,7.1972656,1.1108398l0,0c0.5444336,0,0.9804688,0.4282227,0.9892578,0.9550781V8
	c0,0.0551758,0.0449219,0.1000977,0.0996094,0.1000977H8.5c0.0546875,0,0.0996094-0.0449219,0.0996094-0.1000977V3.1601563
	C8.5898438,2.6318359,9.0185547,2.1875,9.5537109,2.1777344h0.0009766c0.5429688,0,0.9794922,0.4282227,0.9892578,0.9545898
	L10.5429688,8c0,0.0551758,0.0449219,0.1000977,0.0996094,0.1000977h0.2148438c0.0546875,0,0.0996094-0.0449219,0.0996094-0.1000977
	V5.6152344c-0.0146484-0.2358398,0.0722656-0.4858398,0.2460938-0.6796875
	c0.1728516-0.1938477,0.4111328-0.3085938,0.6699219-0.3232422c0.0009766,0,0.0029297,0,0.0039063,0
	c0.5683594,0,0.9931641,0.4023438,1.0214844,0.9160156l0.0019531,4.171875c0,0.3945313-0.0458984,0.7910156-0.1347656,1.1796875
	l-0.9248047,4.0107422H5.0058594z"/>
</svg>
