<?xml version="1.0" encoding="utf-8"?>
<!-- Generator: Adobe Illustrator 23.0.1, SVG Export Plug-In . SVG Version: 6.00 Build 0)  -->
<svg version="1.1" id="Layer_1" xmlns="http://www.w3.org/2000/svg" xmlns:xlink="http://www.w3.org/1999/xlink" x="0px" y="0px"
	 width="16px" height="14px" viewBox="0 0 16 14" style="enable-background:new 0 0 16 14;" xml:space="preserve">
<style type="text/css">
	.st0{fill:#E8B2A5;}
</style>
<path class="st0" d="M5.375,13v-0.8212891c-0.0004883-0.3681641-0.1611328-0.7177734-0.4399414-0.9609375L1.8808594,8.5585938
	C1.3237305,8.078125,1.0024414,7.3774414,1,6.6386719V4.8569336c0.0327148-0.7255859,0.6083984-1.2758789,1.3115234-1.2758789
	C3.0610352,3.6137695,3.6113281,4.1787109,3.625,4.8681641v1.2978516l0.21875,0.1889648l0.0004883-3.6401367
	c0.0317383-0.7250977,0.6079102-1.2758789,1.3115234-1.2758789c0.7490234,0.0327148,1.2993164,0.5976563,1.3134766,1.2866211
	v0.8461914h0.21875V2.2861328c0.0327148-0.7255859,0.6083984-1.2763672,1.3115234-1.2763672
	C8.7490234,1.0424805,9.2998047,1.6074219,9.3125,2.2973633v1.2744141h0.2197266V2.7148438
	c0.0322266-0.7255859,0.6083984-1.2758789,1.3105469-1.2758789c0.75,0.0327148,1.2998047,0.597168,1.3144531,1.2866211v0.8461914
	h0.21875C12.4082031,2.8461914,12.984375,2.2958984,13.6875,2.2958984c0.7490234,0.0327148,1.2988281,0.597168,1.3134766,1.2866211
	L15,7.1708984c0,0.3466797-0.0693359,0.6826172-0.2060547,0.9990234L13.4599609,11.28125
	c-0.1376953,0.3193359-0.2070313,0.65625-0.2060547,1.0019531V13H5.375z"/>
</svg>
