<?xml version="1.0" encoding="utf-8"?>
<!-- Generator: Adobe Illustrator 23.0.1, SVG Export Plug-In . SVG Version: 6.00 Build 0)  -->
<svg version="1.1" id="Layer_1" xmlns="http://www.w3.org/2000/svg" xmlns:xlink="http://www.w3.org/1999/xlink" x="0px" y="0px"
	 width="16px" height="14px" viewBox="0 0 16 14" style="enable-background:new 0 0 16 14;" xml:space="preserve">
<style type="text/css">
	.st0{fill:#E8B2A5;}
</style>
<path class="st0" d="M7.9814453,13C7.4018555,13,6.9375,12.5625,6.9008789,11.9814453
	C6.8813477,11.375,7.3457031,10.8789063,7.9345703,10.8603516L8,10.6396484c0,0-0.8813477,0-0.8823242,0
	c-0.5976563,0-1.0693359-0.4599609-1.0869141-1.0244141C6.0209961,9.3232422,6.125,9.0449219,6.3232422,8.8339844
	C6.5175781,8.6279297,6.7807617,8.5087891,7.0649414,8.5H8V8.2900391H2.3095703C1.5952148,8.2900391,1.015625,7.7299805,1,7.0415039
	C0.9682617,6.3452148,1.5229492,5.7431641,2.2368164,5.7104492L8,5.7099609V5.3500977L3.1508789,3.4868164
	c-0.6728516-0.2402344-1.0166016-0.96875-0.7714844-1.6547852c0.1860352-0.5102539,0.6713867-0.8505859,1.2084961-0.8505859
	c0.1513672,0,0.3007813,0.0268555,0.4443359,0.0795898l5.2675781,2.0322266l0.6816406-0.8378906
	c0.2226563-0.2587891,0.5332031-0.4003906,0.8603516-0.4003906c0.1855469,0,0.3710938,0.0463867,0.5351563,0.1352539
	l3.0683594,1.7236328C14.7871094,3.9042969,15,4.2597656,15,4.6401367v6.4301758
	c0,0.5029297-0.3447266,0.9335938-0.8388672,1.046875l-3.7197266,0.8505859C10.3427734,12.9873047,10.2578125,13,10.1904297,13H8
	H7.9814453z"/>
</svg>
